<?xml version="1.0" encoding="UTF-8"?>
<svg id="_レイヤー_2" data-name="レイヤー_2" xmlns="http://www.w3.org/2000/svg" viewBox="0 0 329.99 107.66">
  <defs>
    <style>
      .cls-1 {
        fill: #f2ebd1;
      }
    </style>
  </defs>
  <g id="mv">
    <g>
      <g>
        <path class="cls-1" d="M20.63,20.12c1.5.73,2.69,1.79,3.58,3.2.89,1.41,1.33,3.09,1.33,5.04s-.52,3.75-1.56,5.31c-1.04,1.56-2.59,2.84-4.67,3.83-2.07.99-4.6,1.61-7.57,1.88-.48.05-1.09.09-1.83.14-.35,0-.52-.08-.52-.25,0-.05.03-.11.1-.2.07-.08.2-.14.38-.16,3.94-.52,7.04-1.67,9.31-3.45,2.27-1.78,3.4-4.28,3.4-7.53,0-1.55-.35-2.91-1.05-4.08-.7-1.17-1.65-2.07-2.85-2.7-1.2-.63-2.52-.95-3.97-.95h-.52c.16.57.24,1.18.24,1.82,0,2.34-1.07,5.03-3.21,8.08.12.52.28,1.06.48,1.61.25.64.38,1.16.38,1.54,0,.41-.11.72-.33.93-.22.21-.47.32-.74.32s-.54-.12-.79-.36c-.25-.24-.45-.52-.59-.86l-.31-.75c-1.17,1.34-2.28,2.29-3.3,2.86-1.03.57-1.94.86-2.75.86-1.08,0-1.9-.36-2.45-1.09-.55-.73-.83-1.65-.83-2.77,0-1.31.4-2.72,1.19-4.24.79-1.51,1.87-2.94,3.23-4.29,1.36-1.35,2.87-2.43,4.53-3.24.09-.91.24-2.07.45-3.5-1.2.24-2.06.36-2.59.36-.81,0-1.63-.27-2.47-.8-.84-.54-1.42-1.1-1.75-1.7-.16-.26-.24-.44-.24-.54,0-.17.09-.25.28-.25.14,0,.25.04.35.11.51.33,1,.6,1.47.79.47.19,1.02.29,1.64.29.28,0,.76-.04,1.45-.12.69-.08,1.42-.21,2.18-.38.11-.95.17-1.85.17-2.68,0-.55-.05-.97-.14-1.25-.3-.67-.78-1.07-1.45-1.22-.09-.02-.21-.04-.35-.05-.14-.01-.21-.05-.21-.13,0-.26.19-.5.57-.72.38-.21.78-.32,1.19-.32.46,0,.98.11,1.56.32.58.21.96.5,1.14.86.09.17.14.54.14,1.11v.36c.55.24,1.26.45,2.11.63.85.18,1.67.29,2.45.34.46.02.79.1.98.21.2.12.29.31.29.57,0,.6-.92,1.36-2.76,2.29-.97.5-2.32.99-4.04,1.47-.12.67-.24,1.72-.38,3.15,1.54-.52,3.09-.79,4.63-.79,1.84,0,3.51.36,5.01,1.09ZM5.75,32.63c1-.68,2.01-1.56,3.02-2.63-.12-.79-.17-1.78-.17-2.97,0-1.48.08-3.16.24-5.04-.62.36-1.31.88-2.07,1.57-1.34,1.22-2.44,2.59-3.3,4.13-.86,1.54-1.3,2.93-1.3,4.17s.39,1.79,1.17,1.79c.6,0,1.4-.34,2.4-1.02ZM13.34,20.28c-.85.14-1.66.36-2.42.64-.09,1.07-.14,2.25-.14,3.54,0,1.03.03,2,.1,2.93.12-.14.26-.36.45-.64,1.38-2.1,2.07-3.98,2.07-5.65,0-.21-.02-.49-.07-.82ZM11.79,14.34c.76-.26,1.35-.5,1.76-.72.25-.09.38-.25.38-.46,0-.14-.18-.3-.55-.46-.42-.14-.79-.32-1.14-.54-.07.43-.16.88-.28,1.36-.09.31-.15.58-.17.82Z"/>
        <path class="cls-1" d="M48.18,16.17c-.62,1.81-1.56,4.42-2.82,7.83-1.26,3.41-2.06,5.54-2.4,6.4-.16.38-.4.69-.71.91-.31.23-.63.34-.95.34-.69,0-1.04-.74-1.04-2.22,0-.31.02-.53.07-.66.05-.13.16-.34.35-.63.28-.38.52-.79.73-1.22l.79-1.54c.88-1.62,1.63-3.1,2.26-4.43.63-1.33,1.18-2.72,1.64-4.15-.35.07-.66.11-.93.11-1.08,0-1.94-.28-2.56-.84-.62-.56-1.09-1.16-1.42-1.81-.14-.26-.21-.49-.21-.68,0-.12.05-.18.14-.18s.25.12.48.36c.3.29.7.5,1.19.64.5.14,1.01.21,1.54.21s1.36-.14,2.42-.43c.09-.45.14-.93.14-1.43,0-.91-.2-1.57-.59-2-.21-.24-.47-.45-.78-.63s-.47-.3-.47-.38c0-.12.09-.21.28-.29.18-.07.41-.11.69-.11.41,0,.81.07,1.17.21.6.21,1.05.46,1.37.75.31.29.5.64.57,1.07.07-.05.25-.07.55-.07l1.56-.04c.16,0,.31-.01.43-.04.13-.02.26-.04.4-.04.16,0,.29.01.38.04.28.02.5.14.66.34.16.2.24.45.24.73s-.08.57-.24.86c-.16.29-.37.52-.62.72-1.29.91-2.73,1.66-4.32,2.25ZM56.85,20.03c-.58.74-.86,1.8-.86,3.18,0,.83.05,1.69.14,2.56.09.87.23,1.93.42,3.16.14.95.23,1.67.28,2.15,1.06.26,2.05.59,2.97.98.92.39,1.62.82,2.11,1.27.32.26.57.55.74.86.17.31.26.6.26.86,0,.33-.1.62-.31.86-.21.24-.46.36-.76.36-.28,0-.58-.09-.92-.27-.33-.18-.76-.45-1.26-.8-.83-.57-1.69-1.04-2.59-1.39v.61c0,1.34-.5,2.4-1.5,3.18-1,.79-2.19,1.18-3.58,1.18-.81,0-1.6-.16-2.38-.48-.78-.32-1.43-.79-1.94-1.41s-.76-1.35-.76-2.18c0-1.31.62-2.33,1.87-3.06,1.24-.73,2.75-1.09,4.53-1.09.21,0,.61.02,1.21.07l-.03-1.43c-.05-1.43-.07-2.47-.07-3.11,0-1.74.13-3.11.38-4.11.25-1,.77-1.85,1.54-2.54.77-.69,1.94-1.29,3.51-1.79.41-.14.62-.36.62-.64,0-.48-.54-1.19-1.62-2.15-.18-.12-.28-.21-.28-.29s.1-.11.31-.11c.18,0,.42.03.71.09.29.06.54.14.74.23.94.33,1.84.88,2.7,1.63.85.75,1.28,1.52,1.28,2.31,0,.5-.17.92-.5,1.25-.33.33-.72.5-1.16.5-.3,0-.56-.06-.79-.18-.23-.12-.53-.32-.9-.61-.35-.26-.65-.45-.92-.57-.27-.12-.56-.18-.88-.18-.94,0-1.71.37-2.28,1.11ZM53.88,35.69c.41-.64.63-1.54.66-2.68-.97-.21-1.85-.32-2.66-.32-1.01,0-1.87.16-2.56.46-.69.31-1.04.79-1.04,1.43s.31,1.18.93,1.54c.62.36,1.35.54,2.18.54,1.24,0,2.07-.32,2.49-.97ZM49.01,13.41c.07-.05.16-.09.26-.13.1-.04.2-.09.29-.16.46-.29.69-.51.69-.68,0-.12-.13-.25-.38-.39-.07-.02-.18-.08-.35-.16-.16-.08-.27-.16-.31-.23v.32c0,.41-.07.88-.21,1.43Z"/>
        <path class="cls-1" d="M90.51,16.95c-1.31,1.05-2.82,1.95-4.53,2.72-.07.41-.2,1.01-.38,1.82-1.68,8.37-2.66,13-2.94,13.91-.25.81-.51,1.4-.78,1.77-.27.37-.58.55-.95.55-.44,0-.82-.16-1.16-.48s-.5-.76-.5-1.31c0-.41.14-.93.41-1.57,1.87-4.22,3.28-8.88,4.25-13.98-.97.29-1.88.43-2.73.43-1.24,0-2.44-.72-3.59-2.15-.16-.17-.24-.31-.24-.43,0-.14.07-.21.21-.21.07,0,.24.06.52.18.83.33,1.59.5,2.28.5.51,0,1.13-.09,1.87-.29.65-.17,1.36-.41,2.14-.72.11-.79.26-1.92.45-3.4.05-.33.07-.67.07-1,0-.76-.14-1.35-.41-1.75-.28-.41-.76-.83-1.45-1.29-.18-.12-.28-.23-.28-.32,0-.07.09-.13.26-.18.17-.05.37-.07.6-.07.3,0,.66.05,1.09.14.43.1.81.23,1.16.39.48.21.87.46,1.16.75.29.29.43.72.43,1.29,0,.14-.01.27-.03.39-.02.12-.05.23-.07.32.28.33.7.67,1.28,1,.25.14.7.31,1.35.5.48.17.84.32,1.07.46.23.14.35.37.35.68,0,.41-.3.85-.9,1.32ZM88.2,15.24c0-.21-.07-.43-.22-.64s-.4-.52-.74-.93l-.62,3c1.06-.62,1.59-1.1,1.59-1.43ZM103.2,35.37c.16.19.24.45.24.79,0,.72-.35,1.2-1.05,1.45-.7.25-1.68.38-2.92.38-2.49,0-4.54-.48-6.15-1.43-1.61-.95-2.42-2.41-2.42-4.36,0-.48.05-.92.14-1.32.09-.41.2-.72.31-.93.14-.26.28-.5.42-.72.14-.21.26-.32.38-.32.09,0,.14.07.14.21,0,.1-.02.23-.07.41-.05.18-.08.34-.1.48s-.03.32-.03.54c0,.48.1.99.29,1.54.2.55.55,1.05,1.05,1.5.39.36,1,.66,1.81.91.82.25,1.75.38,2.78.38.23,0,.5-.01.81-.04.31-.02.62-.05.92-.07.62-.07,1.11-.11,1.45-.11,1.06,0,1.73.24,2,.72ZM103.82,18.47c.28.51.41.97.41,1.38,0,.69-.55,1.12-1.66,1.29-.16.02-.48.07-.95.14s-.89.17-1.26.29c-.39.12-.8.29-1.23.5-.43.21-.74.39-.95.54-.16.1-.3.14-.42.14s-.17-.05-.17-.14.06-.21.17-.36c.14-.14.44-.42.9-.82.67-.55,1.17-.99,1.5-1.32.33-.33.5-.63.5-.89s-.16-.5-.48-.72c-.53-.41-1.1-.68-1.71-.84-.61-.15-1.16-.23-1.64-.23-.23,0-.44.02-.64.05-.2.04-.32.05-.36.05-.32,0-.48-.09-.48-.29,0-.14.15-.29.45-.43,1.11-.41,2.14-.61,3.11-.61.74,0,1.42.09,2.06.27.63.18,1.18.42,1.64.73.53.33.93.76,1.21,1.27Z"/>
        <path class="cls-1" d="M138.42,13.74c1.96.83,3.59,2.17,4.91,4,1.31,1.84,1.97,4.17,1.97,7.01,0,3.46-1,6.17-3.01,8.13-2,1.97-4.28,3.3-6.83,4-2.55.7-4.86,1.05-6.93,1.05-.16,0-.31-.02-.45-.05-.14-.04-.21-.08-.21-.12,0-.1.15-.19.45-.27.3-.08.6-.15.9-.2,3.87-.67,7.03-2.04,9.49-4.13,2.45-2.09,3.68-4.95,3.68-8.6,0-2.65-.54-4.79-1.62-6.42-1.08-1.63-2.41-2.79-3.97-3.49-1.57-.69-3.12-1.04-4.67-1.04-.37,0-.63.01-.79.04.28.62.51,1.38.69,2.29.18.91.28,1.74.28,2.5,0,.91-.1,1.91-.31,3.02-.21,1.11-.52,2.21-.93,3.31-.74,2.03-1.6,3.8-2.58,5.33-.98,1.53-1.93,2.69-2.85,3.5-.92.81-1.67,1.22-2.25,1.22-.85,0-1.65-.44-2.4-1.32-.75-.88-1.35-2.03-1.8-3.43-.45-1.41-.67-2.84-.67-4.29,0-2.62.67-4.95,2.02-6.97,1.35-2.03,3.1-3.59,5.25-4.68,2.15-1.1,4.39-1.64,6.72-1.64,1.98,0,3.95.42,5.91,1.25ZM130.74,13.7c-1.8.24-3.46.88-4.98,1.93-1.52,1.05-2.73,2.4-3.63,4.06-.9,1.66-1.35,3.49-1.35,5.49,0,1.36.17,2.51.5,3.45.33.94.71,1.64,1.14,2.09.43.45.77.68,1.02.68.55,0,1.21-.43,1.99-1.29.77-.86,1.51-1.86,2.23-3,1.24-2,2.13-3.84,2.66-5.52.53-1.68.79-3.4.79-5.17,0-.95-.13-1.86-.38-2.72Z"/>
      </g>
      <path class="cls-1" d="M229.17,21.34c.62.55.93,1.26.93,2.15,0,1.14-.48,2.1-1.43,2.88-.96.78-2.22,1.5-3.78,2.16l-1.59.61c-.39.17-1.03.42-1.9.75-.88.33-1.64.64-2.28.93-.07.62-.08,1.34-.03,2.15,0,.21,0,.64.02,1.29.01.64,0,1.06-.02,1.25-.02.43-.18.81-.47,1.14-.29.33-.62.5-.98.5-.35,0-.65-.15-.92-.46-.27-.31-.4-.67-.4-1.07,0-.31.06-.97.17-1.97l.14-1.61c-2.76,1.53-4.15,3.15-4.15,4.86s1.65,2.61,4.94,2.61c.67,0,1.27-.05,1.81-.14.54-.09,1.13-.23,1.78-.39.12-.02.4-.09.86-.2.46-.11.9-.16,1.31-.16.51,0,.9.11,1.18.32.28.21.41.51.41.89,0,.81-.66,1.38-1.99,1.72-1.33.33-2.75.5-4.27.5-2.67,0-4.57-.44-5.69-1.3-1.12-.87-1.68-2-1.68-3.38,0-1.31.48-2.48,1.45-3.5.97-1.02,2.33-2.04,4.08-3.04.02-.26.03-.63.03-1.11,0-1.26-.2-2.22-.59-2.86-.39-.64-.85-.97-1.38-.97-.74,0-1.47.42-2.19,1.27-.73.85-1.5,1.91-2.33,3.2l-.38.61c-.07.1-.24.36-.52.79-.28.43-.54.76-.79,1-.25.24-.48.36-.69.36-.44,0-.78-.18-1.02-.54-.24-.36-.36-.8-.36-1.32,0-.69.29-1.32.86-1.9l.52-.5c.64-.62,1.2-1.19,1.68-1.7.47-.51.92-1.09,1.33-1.73,1.11-1.76,2.03-3.79,2.76-6.08-1.04.21-1.91.32-2.63.32-.78,0-1.46-.16-2.02-.48-.56-.32-1.24-.84-2.02-1.56-.09-.09-.14-.18-.14-.25s.06-.11.17-.11c.09,0,.25.04.48.11.83.31,1.67.46,2.52.46.46,0,1.07-.05,1.81-.16.75-.11,1.54-.3,2.37-.59.14-.69.21-1.27.21-1.75,0-1-.37-1.76-1.11-2.29-.18-.12-.28-.24-.28-.36.02-.21.09-.39.21-.52.11-.13.28-.2.48-.2.32,0,.78.07,1.37.21.59.14.97.32,1.16.54.16.19.24.49.24.89,0,.14-.02.38-.07.72.44.24.93.36,1.49.36.3,0,.55-.04.76-.11.28-.05.52-.07.73-.07.55,0,.83.23.83.68,0,.41-.19.82-.57,1.25-.38.43-.87.82-1.47,1.18-.9.5-1.88.92-2.94,1.25-.71,2.26-1.52,4.39-2.42,6.36.65-.36,1.26-.54,1.83-.54,2.1,0,3.41,1.14,3.94,3.43.37-.98.78-1.83,1.24-2.56.46-.73,1.01-1.45,1.66-2.16.69-.76,1.54-1.44,2.54-2.02,1-.58,2-.88,2.99-.88.83,0,1.56.27,2.18.82ZM215.93,16.33c.44-.26.69-.42.76-.46.16-.09.24-.19.24-.29s-.09-.2-.28-.32l-.38-.25-.35,1.32ZM226.63,24.75c.63-.75.95-1.4.95-1.95,0-.74-.45-1.11-1.35-1.11-.6,0-1.28.21-2.04.63-.76.42-1.47,1-2.14,1.73-.6.67-1.15,1.5-1.66,2.49-.51.99-.86,1.95-1.07,2.88l.41-.21.76-.39c1.45-.74,2.65-1.39,3.59-1.97,1.06-.64,1.91-1.34,2.54-2.09Z"/>
      <path class="cls-1" d="M188.93,5.09c.11-.18.27-.41.47-.71.2-.3.37-.52.49-.67.13-.15.25-.22.36-.22.26,0,.92.48,2,1.44,1.07.96,1.72,1.67,1.95,2.11.09.15.09.3,0,.44-.17.33-.52.49-1.03.49h-15.37c1.49.5,2.53.9,3.13,1.18.6.28.9.51.9.69,0,.09-.13.19-.39.31l-.77.31c-.6,1.48-1.17,2.78-1.72,3.91h7.64l.94-1.07c.11-.12.31-.33.6-.64s.52-.47.69-.47c.23,0,.77.42,1.63,1.24.86.83,1.39,1.48,1.59,1.95.09.12.06.25-.09.4-.14.15-.33.25-.56.31-.23.06-.57.12-1.03.18-1.75,6.07-4.37,11.08-7.86,15.01,3.23,2.61,7.33,4.52,12.28,5.73.2.06.3.15.3.27s-.03.21-.09.27c-.06.06-.13.1-.21.13-1.26.41-2.09,1.41-2.49,2.98-.06.24-.2.31-.43.22-4.72-1.75-8.52-4.26-11.38-7.55-3.58,3.32-7.9,5.83-12.97,7.55h-.13c-.14,0-.26-.06-.34-.18v-.04l-.09-.18c0-.12.07-.22.21-.31,4.61-2.16,8.53-5.09,11.76-8.8-1.92-2.67-3.52-5.85-4.81-9.55-1.72,2.13-3.61,3.92-5.67,5.38-.17.12-.33.1-.47-.04l-.04-.04c-.2-.15-.21-.31-.04-.49,2-2.22,3.86-4.97,5.56-8.24,1.7-3.27,3.04-6.74,4.01-10.42h-10c2.46,1.07,3.69,1.76,3.69,2.09,0,.09-.16.19-.47.31l-.86.22c-1.23,2.55-2.66,4.92-4.29,7.11,1.12.8,1.67,1.38,1.67,1.73,0,.15-.13.3-.39.44l-.6.27v9.2c.06,3.7.17,7.09.34,10.17,0,.18-.06.33-.17.44-.31.3-.74.56-1.27.78-.53.22-1.07.33-1.61.33-.29,0-.54-.09-.75-.27-.21-.18-.32-.39-.32-.62.11-1.75.21-3.44.3-5.09.09-1.64.14-3.8.17-6.46v-7.77c-1.86,2.1-3.86,3.89-6.01,5.38-.17.12-.33.1-.47-.04-.17-.18-.17-.36,0-.53,1.95-2.04,3.85-4.64,5.71-7.8,1.86-3.15,3.41-6.45,4.64-9.88h-3.35c-1.72.03-3.65.22-5.8.58h-.09c-.14,0-.26-.07-.34-.22l-.77-1.55-.04-.18c0-.15.1-.22.3-.22,1.55.15,3.28.25,5.19.31h11.68c0-2.28-.11-4.4-.34-6.35,0-.3.13-.4.39-.31,1.69.42,2.86.76,3.52,1.04.66.28.99.53.99.73,0,.12-.13.25-.39.4l-.73.49v4h10.86l1.03-1.6ZM174.81,21.04c1.43,3.32,3.32,6.13,5.67,8.44,2.86-3.91,4.97-8.51,6.31-13.82h-8.5c-.2.39-.59,1.05-1.16,2l.09-.04c.17-.12.33-.13.47-.04,1.75.59,3.03,1.34,3.86,2.24.83.9,1.25,1.78,1.25,2.64,0,.56-.15,1.02-.45,1.38-.3.36-.67.53-1.1.53-.34,0-.72-.13-1.12-.4-.09-.09-.16-.24-.21-.44-.14-.92-.49-1.9-1.03-2.95-.54-1.05-1.16-1.98-1.85-2.78-.54.92-1.29,2-2.23,3.24Z"/>
      <g>
        <path class="cls-1" d="M45.1,86.84c-1.48.02-3.12.18-4.94.46h-.1c-.09,0-.17-.06-.24-.18l-.62-1.25s-.03-.07-.03-.14c0-.12.09-.18.28-.18,1.11.12,2.37.2,3.8.25h2v-3.25h-1.56c-.83.02-1.65.17-2.45.43h-.1c-.09,0-.17-.06-.24-.18l-.59-1.18s-.03-.11-.03-.18c0-.12.08-.17.24-.14,1.04.1,2.07.17,3.11.21h1.62v-2.82h-1.76c-.92.02-1.85.17-2.8.43h-.1c-.09,0-.17-.06-.24-.18l-.59-1.22-.03-.14c0-.12.09-.18.28-.18,1.01.12,2.17.2,3.46.25h1.8c0-1.33-.07-2.54-.21-3.61,0-.24.12-.32.35-.25,1.22.36,2.07.64,2.54.86.47.21.71.41.71.57,0,.07-.09.18-.28.32l-.52.36v1.75h2.07l.66-1c.09-.12.19-.26.29-.43.1-.17.21-.31.33-.43.11-.12.22-.18.31-.18.18,0,.63.3,1.33.91.7.61,1.13,1.08,1.3,1.41.02.12.01.24-.03.36-.14.26-.4.39-.79.39h-5.46v2.82h1.8l.62-.93c.09-.12.18-.25.28-.39.09-.14.19-.27.29-.39.1-.12.2-.18.29-.18.21,0,.63.28,1.28.84.65.56,1.05,1.01,1.21,1.34.02.12.01.24-.03.36-.14.26-.39.39-.76.39h-4.98v3.25h2.52l.69-1.04c.09-.12.19-.26.29-.43.1-.17.21-.31.33-.43.11-.12.22-.18.31-.18.18,0,.64.31,1.37.93.73.62,1.17,1.1,1.33,1.43l.03.14c0,.19-.09.34-.26.45-.17.11-.38.16-.6.16h-8.74ZM68.47,88.09c.11-.19.24-.2.38-.04.53.55,1.07,1.2,1.62,1.97.12.14.14.27.07.39-.16.24-.42.36-.76.36h-2.42v2.4l.03,1.47c.02,1.12.07,2.1.14,2.93,0,.14-.05.26-.14.36-.21.19-.51.36-.9.5-.39.14-.76.21-1.11.21-.3,0-.5-.18-.59-.54,0-.05.02-.17.07-.36,0-.02.02-.15.07-.39v-.64h-3.63v6.04c0,1.12-.22,1.98-.66,2.59-.44.61-1.31,1.01-2.63,1.2h-.07c-.12,0-.2-.08-.24-.25-.07-.72-.25-1.26-.55-1.64-.44-.45-1.19-.77-2.25-.97-.18-.05-.28-.14-.28-.29,0-.17.07-.25.21-.25.55,0,1.19.04,1.9.11l1.38.07c.25,0,.43-.05.54-.14.1-.09.16-.27.16-.54v-5.94h-1.52c-.83.02-1.65.17-2.45.43h-.1c-.09,0-.17-.06-.24-.18l-.59-1.18s-.03-.11-.03-.18c0-.12.08-.17.24-.14,1.01.12,2.03.19,3.04.21h1.66v-4.9h-5.29c-.14,0-.23-.05-.28-.14l-.03-.14c-.28.26-.67.44-1.18.54v12.05c0,.74-.07,1.33-.21,1.79-.14.45-.43.82-.88,1.11s-1.12.49-2.02.61h-.07c-.12,0-.2-.08-.24-.25-.12-.81-.28-1.36-.48-1.64-.46-.45-1.12-.75-1.97-.89-.19-.05-.28-.14-.28-.29v-.04c0-.17.07-.25.21-.25.48,0,1.04.04,1.66.11l1.17.07c.23,0,.39-.05.48-.16.09-.11.14-.28.14-.52v-3.93h-5.67v2.32c.02.36.03.82.03,1.39.02,1.1.07,2.04.14,2.82,0,.14-.03.26-.1.36-.16.24-.45.45-.86.64-.41.19-.85.29-1.31.29-.19,0-.34-.07-.47-.21-.13-.14-.19-.31-.19-.5.14-2.22.23-4.46.28-6.72v-3.75c0-2.81-.13-5.12-.38-6.94v-.07c0-.09.02-.15.07-.18.05-.02.12-.01.21.04l2.73,1.25h5.18l1.04-1.36c.09-.14.22-.15.38-.04l2.49,1.97-.03-.07v-.07c0-.17.08-.25.24-.25h5.5v-4.86h-1.42c-.71.02-1.42.17-2.11.43h-.07c-.14,0-.24-.06-.31-.18l-.73-1.39-.62.54c-.14.1-.27.08-.38-.04-.14-.09-.15-.21-.03-.36.71-.86,1.43-1.98,2.14-3.36.53-.95,1.01-2.07,1.43-3.36.43-1.29.71-2.43.85-3.43.02-.21.14-.29.35-.21,2.4.74,3.59,1.24,3.59,1.5,0,.07-.1.13-.31.18l-.59.14c-.35.74-.79,1.54-1.35,2.4h3.49l.69-.82c.09-.09.24-.26.43-.48.2-.23.36-.34.5-.34.18,0,.61.32,1.28.97.67.64,1.08,1.14,1.24,1.5.07.14.03.26-.1.36-.14.1-.51.18-1.11.25-1.01,1.14-1.85,2.07-2.52,2.77-.67.7-1.37,1.35-2.11,1.95h3.87v-.04h.07l.55-.82c.07-.09.18-.26.35-.48.16-.23.31-.34.45-.34.18,0,.55.29,1.11.88.55.58.9,1.05,1.04,1.41.07.14.03.26-.1.36-.35.24-.69.39-1.04.46v4.43h.17l.93-1.61ZM43.89,93.57h5.67v-3h-5.67v3ZM43.89,97.78h5.67v-3.18h-5.67v3.18ZM60.17,83.84c.44-.67.89-1.47,1.35-2.41.46-.94.86-1.84,1.21-2.7h-4.11c-1.36,1.95-2.78,3.58-4.25,4.86,1.11.12,2.38.2,3.84.25h1.97ZM61.31,89.7h3.63v-4.86h-3.63v4.86ZM61.31,95.67h3.63v-4.9h-3.63v4.9Z"/>
        <path class="cls-1" d="M97.29,89.85c0,.95-.13,2.23-.4,3.83-.27,1.6-.67,3.17-1.23,4.72-.55,1.55-1.22,2.74-2,3.58-.39.43-.81.78-1.26,1.05-.45.27-.84.41-1.16.41-.67,0-1.2-.57-1.59-1.72-.3-.91-.86-1.92-1.69-3.04-.23-.33-.35-.55-.35-.64,0-.05.03-.07.1-.07.09,0,.31.11.66.34.35.23.61.39.79.48.16.1.39.24.67.43.29.19.54.33.74.43.21.1.4.14.59.14.76,0,1.45-.66,2.06-1.97.61-1.31,1.08-2.83,1.42-4.56.33-1.73.5-3.13.5-4.2,0-1.14-.16-2.01-.48-2.59-.32-.58-.85-.88-1.59-.88-.97,0-2.3.43-4.01,1.29-1.13,5.17-2.85,9.68-5.15,13.52-.32.57-.68,1.03-1.07,1.36-.39.33-.76.5-1.11.5-.32,0-.59-.11-.79-.34-.21-.23-.31-.53-.31-.91,0-.76.43-1.7,1.28-2.82,2.37-3.24,4.01-6.64,4.91-10.19-1.06.52-1.93.93-2.61,1.22s-1.2.43-1.57.43c-.48,0-.98-.17-1.49-.52-.51-.35-.93-.78-1.26-1.31-.33-.52-.5-1.05-.5-1.57,0-.24.06-.36.17-.36.09,0,.23.05.42.16.18.11.32.19.41.23.65.31,1.36.46,2.14.46.85-.02,1.64-.12,2.37-.29.73-.17,1.54-.43,2.44-.79.3-1.5.45-2.76.45-3.79,0-1.24-.24-2.16-.73-2.75-.21-.29-.47-.57-.78-.86s-.47-.48-.47-.57c0-.14.11-.26.35-.34.23-.08.53-.12.9-.12.44,0,.9.06,1.38.18.48.12.85.29,1.11.5.6.38.9.91.9,1.57,0,.29-.09.83-.28,1.64-.14.43-.24.88-.31,1.36l-.38,2.4c1.34-.48,2.56-.72,3.66-.72,2.76,0,4.15,1.9,4.15,5.69ZM104.98,85.13c1.21.67,2.09,1.45,2.64,2.34.55.89.83,1.73.83,2.52,0,.6-.12,1.13-.36,1.59-.24.46-.55.83-.92,1.09-.37.26-.73.39-1.07.39-.21,0-.4-.05-.59-.16-.18-.11-.41-.26-.69-.45-.6-.48-1.8-.82-3.59-1.04-.32-.05-.48-.12-.48-.21s.17-.17.52-.21l1.49-.18.83-.11c.69-.14,1.16-.29,1.4-.43.24-.14.36-.41.36-.79,0-1.12-.52-2.15-1.56-3.09-1.04-.94-2.22-1.6-3.56-1.98-.21-.07-.31-.14-.31-.21,0-.09.14-.14.41-.14,1.89.05,3.44.41,4.65,1.07Z"/>
        <path class="cls-1" d="M122.17,103.36c-.44-.43-.77-.93-1-1.5-.9-2.34-1.35-5.17-1.35-8.51,0-1.57.12-2.97.35-4.2.23-1.23.54-2.53.93-3.92.25-.93.44-1.66.55-2.2.11-.54.17-1.07.17-1.59s-.09-1.01-.26-1.52c-.17-.51-.41-.92-.71-1.23-.05-.05-.12-.13-.21-.23-.09-.11-.14-.21-.14-.3s.07-.14.21-.14.32.06.55.18c.92.48,1.67,1.08,2.25,1.81.58.73.86,1.68.86,2.84,0,.57-.1,1.16-.31,1.75-.21.6-.52,1.29-.93,2.07-.23.48-.46.98-.69,1.52-.23.54-.4,1.04-.52,1.52-.23.86-.35,1.78-.35,2.75,0,.6.06,1.15.17,1.66.12.51.26.77.45.77.09,0,.2-.1.33-.3.13-.2.21-.34.26-.41l1.9-4.04c.16-.26.29-.39.38-.39.07,0,.1.05.1.14l-.1.43c-.35.95-.71,2.13-1.09,3.52-.38,1.39-.57,2.53-.57,3.41,0,.62.06,1.24.17,1.86.12.62.28,1.38.48,2.29.21.81.31,1.31.31,1.5,0,.36-.1.63-.29.82-.2.19-.43.29-.71.29-.37,0-.77-.21-1.21-.64ZM132.14,101.59c-1.35-.58-2.31-1.65-2.89-3.2-.16-.41-.24-.68-.24-.82,0-.09.05-.14.14-.14.07,0,.16.05.28.14.12.1.21.17.28.21.9.74,1.94,1.25,3.11,1.54.55.14,1.34.21,2.35.21,1.11,0,2.55-.13,4.32-.39.88-.09,1.35-.14,1.42-.14.62,0,1.12.17,1.49.5.37.33.55.7.55,1.11,0,.76-.56,1.26-1.68,1.5-1.12.24-2.54.36-4.27.36-1.89,0-3.51-.29-4.86-.88ZM132.89,83.48c-.74-.26-1.37-.61-1.9-1.05-.53-.44-.9-.88-1.11-1.31-.09-.19-.14-.35-.14-.46,0-.09.03-.14.1-.14.05,0,.16.06.35.18.18.12.35.21.48.29.78.33,1.67.5,2.66.5.65,0,1.49-.07,2.52-.21,1.04-.14,1.92-.31,2.66-.5.35-.12.63-.18.86-.18.53,0,1,.15,1.42.45.41.3.62.65.62,1.05,0,.64-.59,1.11-1.76,1.41-1.18.3-2.42.45-3.73.45-1.2,0-2.21-.15-3.04-.46Z"/>
        <path class="cls-1" d="M157.18,87.27c-.21-.69-.58-1.41-1.11-2.16-.53-.75-1.11-1.4-1.73-1.95-.07-.05-.11-.1-.12-.16-.01-.06,0-.11.05-.16.09-.09.21-.13.35-.11,1.66.26,2.89.74,3.7,1.43.81.69,1.21,1.41,1.21,2.15,0,.41-.13.76-.38,1.05-.25.3-.56.45-.93.45-.3,0-.58-.08-.83-.25-.09-.05-.16-.14-.21-.29ZM183.66,88.54c.74.56,1.2,1.01,1.38,1.34.07.1.05.2-.07.32-.3.31-.73.51-1.28.61v12.34c0,.72-.08,1.29-.22,1.73-.15.44-.47.81-.95,1.11-.48.3-1.21.51-2.18.63h-.07c-.12,0-.2-.08-.24-.25-.07-.69-.3-1.22-.69-1.57-.44-.41-1.23-.73-2.38-.97-.16-.02-.24-.12-.24-.29s.07-.25.21-.25c.3,0,.63.01,1,.04.37.02.73.05,1.07.07.69.07,1.22.11,1.59.11.25,0,.43-.05.52-.16.09-.11.14-.29.14-.55v-12.51h-6.81v8.69h2.66c0-2.55-.12-4.7-.35-6.44v-.07c0-.19.1-.25.31-.18,1.66.57,2.49,1,2.49,1.29,0,.1-.06.18-.17.25l-.38.25v1.86c.07,2.1.14,3.7.21,4.79,0,.1-.03.2-.1.32-.16.21-.4.4-.73.55-.32.16-.62.23-.9.23h-.1c-.18,0-.28-.09-.28-.29v-1.5h-7.5v1.64c0,.12-.17.27-.5.45-.33.18-.65.27-.95.27-.16,0-.29-.07-.38-.21-.09-.14-.14-.31-.14-.5.07-.6.12-1.19.14-1.79,0-.36.01-.64.03-.86v-1.68c0-1.74-.09-3.35-.28-4.83,0-.24.11-.31.35-.21,1.54.52,2.32.94,2.32,1.25,0,.07-.07.16-.21.25l-.38.25v4.9h2.63v-8.69h-6.57v6.87c.05,2.98.14,5.71.28,8.19,0,.14-.03.26-.1.36-.21.26-.51.49-.92.68-.4.19-.81.29-1.23.29-.16,0-.31-.07-.45-.21s-.21-.31-.21-.5c.16-2.07.26-4.39.31-6.94v-3.86c0-2.81-.13-5.12-.38-6.94v-.07c0-.09.03-.15.09-.18.06-.02.13-.01.22.04l2.59,1.25h6.19v-3.58h-3.66c-1.47.02-3.12.18-4.94.46h-.1c-.09,0-.17-.06-.24-.18l-.66-1.39c-1.47,4.98-2.45,8.37-2.94,10.16-.28,1.22-.41,2.25-.41,3.11,0,.31.04.64.12,1,.08.36.18.72.29,1.07.18.72.33,1.35.43,1.91.1.56.16,1.19.16,1.88,0,.93-.18,1.66-.55,2.2-.37.54-.88.8-1.52.8-.3,0-.56-.14-.79-.41-.23-.27-.38-.67-.45-1.2,0-.14.01-.26.03-.36.16-1.55.24-2.75.24-3.61,0-.93-.06-1.69-.17-2.29-.12-.6-.29-.98-.52-1.14-.3-.26-.75-.43-1.35-.5-.19-.05-.28-.15-.28-.32v-.18c0-.19.09-.29.28-.29h1.14c.23,0,.39-.04.48-.13.09-.08.22-.29.38-.63.32-.6.87-1.88,1.64-3.86.77-1.98,2.15-5.55,4.13-10.73.07-.19.18-.26.35-.21h.1c.18.05.25.17.21.36l-.24.79-.69,2.4c1.13.12,2.43.2,3.91.25h1.9v-4.68h-1.73c-.97.02-1.92.17-2.87.43-.18.05-.3,0-.35-.14l-.62-1.29-.03-.14c0-.12.09-.18.28-.18,1.01.12,2.17.2,3.46.25h1.87c0-1.74-.09-3.34-.28-4.79,0-.24.1-.32.31-.25,1.27.33,2.15.61,2.64.84.5.23.74.42.74.59,0,.1-.09.2-.28.32l-.59.39v2.9h4.91c0-1.74-.09-3.34-.28-4.79,0-.24.1-.32.31-.25,2.26.62,3.39,1.08,3.39,1.39,0,.12-.1.24-.31.36l-.59.39v2.9h1.97l.69-1.07c.07-.12.18-.28.33-.48.15-.2.27-.36.36-.46.09-.11.18-.16.28-.16.21,0,.69.33,1.43.98.75.66,1.2,1.16,1.36,1.52.02.12.01.24-.03.36-.14.26-.4.39-.79.39h-5.6v4.68h2.21l.73-1.14c.09-.12.21-.29.36-.5.15-.21.27-.38.36-.48.09-.11.18-.16.28-.16.21,0,.69.34,1.45,1.02.76.68,1.22,1.2,1.38,1.56.02.05.03.11.03.18,0,.17-.09.3-.26.41-.17.11-.37.16-.6.16h-9.64v3.58h6.32l.52-.75c.07-.09.16-.21.26-.36s.2-.25.28-.32c.08-.07.17-.11.26-.11.21,0,.68.28,1.42.84ZM159.29,78.94c-.25-.74-.69-1.51-1.3-2.32-.61-.81-1.26-1.53-1.95-2.15-.07-.05-.11-.1-.12-.16-.01-.06,0-.11.05-.16.09-.09.21-.13.35-.11,1.8.29,3.13.8,4.01,1.56.88.75,1.31,1.52,1.31,2.31,0,.43-.13.79-.38,1.07-.25.29-.56.43-.93.43-.3,0-.56-.06-.79-.18-.09-.05-.17-.14-.24-.29ZM170.87,79.94v4.68h4.91v-4.68h-4.91Z"/>
        <path class="cls-1" d="M207.78,83.27c-1.31,1.05-2.82,1.95-4.53,2.72-.07.41-.2,1.01-.38,1.82-1.68,8.37-2.66,13-2.94,13.91-.25.81-.51,1.4-.78,1.77-.27.37-.58.55-.95.55-.44,0-.82-.16-1.16-.48s-.5-.76-.5-1.31c0-.41.14-.93.41-1.57,1.87-4.22,3.28-8.88,4.25-13.98-.97.29-1.88.43-2.73.43-1.24,0-2.44-.72-3.59-2.15-.16-.17-.24-.31-.24-.43,0-.14.07-.21.21-.21.07,0,.24.06.52.18.83.33,1.59.5,2.28.5.51,0,1.13-.09,1.87-.29.65-.17,1.36-.41,2.14-.72.11-.79.26-1.92.45-3.4.05-.33.07-.67.07-1,0-.76-.14-1.35-.41-1.75-.28-.41-.76-.83-1.45-1.29-.18-.12-.28-.23-.28-.32,0-.07.09-.13.26-.18.17-.05.37-.07.6-.07.3,0,.66.05,1.09.14.43.1.81.23,1.16.39.48.21.87.46,1.16.75.29.29.43.72.43,1.29,0,.14-.01.27-.03.39-.02.12-.05.23-.07.32.28.33.7.67,1.28,1,.25.14.7.31,1.35.5.48.17.84.32,1.07.46.23.14.35.37.35.68,0,.41-.3.85-.9,1.32ZM205.46,81.55c0-.21-.07-.43-.22-.64s-.4-.52-.74-.93l-.62,3c1.06-.62,1.59-1.1,1.59-1.43ZM220.46,101.68c.16.19.24.45.24.79,0,.72-.35,1.2-1.05,1.45-.7.25-1.68.38-2.92.38-2.49,0-4.54-.48-6.15-1.43-1.61-.95-2.42-2.41-2.42-4.36,0-.48.05-.92.14-1.32.09-.41.2-.72.31-.93.14-.26.28-.5.42-.72.14-.21.26-.32.38-.32.09,0,.14.07.14.21,0,.1-.02.23-.07.41-.05.18-.08.34-.1.48s-.03.32-.03.54c0,.48.1.99.29,1.54.2.55.55,1.05,1.05,1.5.39.36,1,.66,1.81.91.82.25,1.75.38,2.78.38.23,0,.5-.01.81-.04.31-.02.62-.05.92-.07.62-.07,1.11-.11,1.45-.11,1.06,0,1.73.24,2,.72ZM221.08,84.79c.28.51.41.97.41,1.38,0,.69-.55,1.12-1.66,1.29-.16.02-.48.07-.95.14s-.89.17-1.26.29c-.39.12-.8.29-1.23.5-.43.21-.74.39-.95.54-.16.1-.3.14-.42.14s-.17-.05-.17-.14.06-.21.17-.36c.14-.14.44-.42.9-.82.67-.55,1.17-.99,1.5-1.32.33-.33.5-.63.5-.89s-.16-.5-.48-.72c-.53-.41-1.1-.68-1.71-.84-.61-.15-1.16-.23-1.64-.23-.23,0-.44.02-.64.05-.2.04-.32.05-.36.05-.32,0-.48-.09-.48-.29,0-.14.15-.29.45-.43,1.11-.41,2.14-.61,3.11-.61.74,0,1.42.09,2.06.27.63.18,1.18.42,1.64.73.53.33.93.76,1.21,1.27Z"/>
        <path class="cls-1" d="M259.45,81.55c.37.21.55.58.55,1.11,0,.76-.48,1.14-1.45,1.14-.35,0-.96-.07-1.83-.21-2.47-.33-4.42-.5-5.88-.5-.78,0-1.56.04-2.32.11-.07,1.57-.1,3.21-.1,4.9,0,.98.01,1.66.03,2.04.46.86.83,1.8,1.11,2.82.28,1.03.41,2.01.41,2.97,0,1.91-.45,3.55-1.35,4.92-.9,1.37-1.98,2.45-3.23,3.24-1.26.79-2.51,1.33-3.75,1.64-.16.05-.28.07-.35.07-.16,0-.24-.06-.24-.18,0-.17.12-.3.35-.39,1.54-.69,2.75-1.56,3.63-2.61.88-1.05,1.47-2.07,1.8-3.08s.5-1.87.52-2.61v-.21c-.14.29-.45.58-.93.88-.48.3-.91.45-1.28.45-.65,0-1.22-.26-1.71-.77-.5-.51-.9-1.13-1.23-1.84-.28-.62-.5-1.27-.67-1.97-.17-.69-.26-1.33-.26-1.93,0-1.17.33-2.16.98-2.99.66-.82,1.51-1.23,2.57-1.23.51,0,1.02.16,1.56.46.21-1.41.31-2.86.31-4.36-2.21.38-4.7,1.22-7.46,2.5-.99.55-1.89.82-2.7.82-.65,0-1.29-.19-1.94-.57-.51-.31-1.03-.77-1.56-1.38-.53-.61-.79-1.04-.79-1.31,0-.12.08-.18.24-.18.14,0,.48.07,1.04.21.92.17,1.62.25,2.11.25.9,0,1.72-.09,2.45-.29.9-.19,2.18-.44,3.84-.75,1.66-.31,3.25-.58,4.77-.82-.05-1.36-.1-2.38-.17-3.08-.05-.62-.19-1.18-.43-1.68-.24-.5-.51-.86-.81-1.07-.16-.12-.33-.24-.5-.36-.17-.12-.26-.21-.26-.29,0-.17.16-.31.48-.43.32-.12.62-.18.9-.18.44,0,.89.1,1.35.29,1.27.48,1.9,1.17,1.9,2.07,0,.19-.07.52-.21,1,1.24.69,2.27,1.23,3.08,1.61.81.38,1.6.64,2.38.79.76.21,1.65.35,2.66.39l.86.11c.64.1,1.15.25,1.52.46ZM246.02,94.42c.31-.45.47-1.12.47-2s-.19-1.73-.55-2.63c-.37-.89-.9-1.34-1.59-1.34-.6,0-1.09.31-1.47.93-.38.62-.57,1.36-.57,2.22,0,.81.26,1.6.78,2.36.52.76,1.09,1.14,1.71,1.14.51,0,.92-.23,1.23-.68ZM251.17,81.35c.22-.01.38-.04.48-.07.1-.04.16-.09.16-.16,0-.09-.08-.19-.22-.29-.15-.09-.25-.17-.29-.21-.46-.29-1.29-.86-2.49-1.72-.12,1.53-.18,2.43-.21,2.72.74-.12,1.43-.2,2.07-.25.12,0,.28,0,.5-.02Z"/>
      </g>
      <path class="cls-1" d="M304.15,82.47c.11-.15.28-.37.49-.67.21-.3.39-.52.52-.67.13-.15.25-.22.37-.22.26,0,.92.46,2,1.38,1.07.92,1.72,1.6,1.95,2.04.09.15.09.3,0,.44-.17.33-.5.49-.99.49h-12.24v16.79c0,.42.11.7.32.84.21.15.68.22,1.4.22h3.91c1.8,0,3.01-.04,3.61-.13.29-.03.49-.09.6-.18.11-.09.23-.25.34-.49.23-.56.73-2.87,1.5-6.93.03-.21.14-.31.34-.31.17,0,.26.12.26.36l.09,7.2c.49.21.82.43.99.67.17.24.26.55.26.93,0,.56-.21,1-.64,1.31-.43.31-1.23.54-2.4.69-1.17.15-2.88.22-5.11.22h-4.42c-1.23,0-2.15-.1-2.77-.31-.62-.21-1.04-.56-1.27-1.04-.23-.49-.34-1.21-.34-2.15v-17.68h-5.32c-.32,4.06-.98,7.48-2,10.26-1.02,2.78-2.63,5.18-4.83,7.17-2.2,2-5.18,3.65-8.93,4.95h-.09c-.17,0-.29-.07-.34-.22-.03-.03-.04-.09-.04-.18,0-.12.07-.22.21-.31,3.01-1.6,5.37-3.41,7.11-5.44,1.73-2.03,2.98-4.34,3.74-6.93.76-2.59,1.22-5.69,1.4-9.31h-5.07c-1.83.03-3.88.22-6.14.58h-.13c-.11,0-.21-.07-.3-.22l-.77-1.51s-.04-.09-.04-.18c0-.15.11-.22.34-.22,1.55.15,3.28.25,5.2.31h11.85v-8.35c0-3.26-.16-6.15-.47-8.66v-.09c0-.24.13-.31.39-.22,1.72.44,2.91.8,3.56,1.07.66.27.99.5.99.71,0,.15-.11.3-.34.44l-.73.49v14.61h10.99l1.03-1.55ZM275.6,69.64c.14-.09.3-.09.47,0,2.58,1.42,4.48,2.99,5.71,4.71,1.23,1.72,1.85,3.29,1.85,4.71,0,.74-.17,1.35-.49,1.82-.33.47-.75.71-1.27.71-.4,0-.84-.18-1.33-.53-.09-.09-.16-.22-.21-.4-.23-1.57-.79-3.31-1.7-5.22s-1.93-3.68-3.07-5.31c-.11-.21-.1-.37.04-.49ZM302.04,69.01l2.49,1.42c1.37.56,2.06.99,2.06,1.29,0,.15-.17.27-.52.36l-.82.22c-1.26,1.75-2.63,3.45-4.1,5.11-1.47,1.66-2.9,3.08-4.27,4.26-.17.18-.34.18-.52,0-.2-.15-.23-.31-.09-.49.49-.8,1.12-1.94,1.89-3.42.66-1.27,1.32-2.73,1.98-4.38.66-1.64,1.14-3.04,1.46-4.2.06-.27.2-.33.43-.18Z"/>
      <path class="cls-1" d="M324.61,105.46c-.55-.34-.99-.79-1.31-1.36-.33-.57-.49-1.2-.49-1.89s.16-1.3.49-1.87c.33-.57.76-1.02,1.31-1.35.55-.33,1.15-.49,1.8-.49s1.25.16,1.8.49c.55.33.98.78,1.3,1.35.32.57.48,1.19.48,1.87s-.16,1.32-.48,1.89c-.32.57-.75,1.02-1.3,1.36-.55.34-1.15.51-1.8.51s-1.25-.17-1.8-.51ZM328.38,104.26c.54-.57.81-1.25.81-2.05s-.27-1.45-.82-2.01c-.55-.56-1.2-.84-1.96-.84s-1.43.28-1.98.84c-.55.56-.82,1.23-.82,2.01s.27,1.51.82,2.07c.55.56,1.21.84,1.98.84s1.43-.28,1.97-.85Z"/>
    </g>
  </g>
</svg>