<?xml version="1.0" encoding="UTF-8"?>
<svg id="_レイヤー_2" data-name="レイヤー_2" xmlns="http://www.w3.org/2000/svg" viewBox="0 0 25 25">
  <g id="header">
    <path d="M7.32.09c-1.33.06-2.24.28-3.03.59-.82.32-1.52.75-2.21,1.45-.69.7-1.12,1.39-1.44,2.22-.31.8-.52,1.7-.58,3.04C0,8.7,0,9.13,0,12.52s.02,3.82.09,5.15c.06,1.33.28,2.24.59,3.03.32.82.75,1.52,1.45,2.21.7.69,1.39,1.12,2.22,1.44.8.31,1.7.52,3.03.58,1.33.06,1.76.07,5.15.07,3.39,0,3.82-.02,5.15-.08s2.24-.28,3.03-.59c.82-.32,1.52-.75,2.21-1.45s1.12-1.39,1.44-2.22c.31-.8.52-1.7.58-3.03.06-1.33.07-1.76.07-5.15s-.02-3.82-.09-5.15-.28-2.24-.59-3.03c-.32-.82-.75-1.52-1.45-2.21s-1.39-1.12-2.22-1.44c-.8-.31-1.7-.52-3.03-.58S15.87,0,12.48,0s-3.82.02-5.15.09M7.47,22.68c-1.22-.05-1.88-.26-2.32-.43-.58-.23-1-.5-1.44-.93s-.71-.85-.94-1.44c-.17-.44-.38-1.1-.43-2.32-.06-1.32-.08-1.71-.08-5.05s0-3.73.06-5.05c.05-1.22.26-1.88.43-2.32.23-.58.5-1,.93-1.44s.85-.71,1.44-.94c.44-.17,1.1-.38,2.32-.43,1.32-.06,1.71-.08,5.05-.08,3.34,0,3.73,0,5.05.06,1.22.05,1.88.25,2.32.43.58.23,1,.5,1.44.93s.71.85.94,1.44c.17.44.38,1.1.43,2.32.06,1.32.08,1.71.08,5.05,0,3.34,0,3.73-.06,5.05-.05,1.22-.26,1.88-.43,2.32-.23.58-.5,1-.93,1.44s-.85.71-1.44.94c-.44.17-1.1.38-2.32.43-1.32.06-1.71.08-5.05.08s-3.73,0-5.05-.06M17.66,5.82c0,.83.67,1.5,1.5,1.5s1.5-.67,1.5-1.5c0-.83-.67-1.5-1.5-1.5,0,0,0,0,0,0-.83,0-1.5.67-1.5,1.5M6.08,12.51c0,3.55,2.89,6.41,6.43,6.41s6.41-2.89,6.41-6.43-2.89-6.41-6.43-6.41-6.41,2.89-6.41,6.43M8.33,12.51c0-2.3,1.86-4.17,4.16-4.18,2.3,0,4.17,1.86,4.18,4.16,0,2.3-1.86,4.17-4.16,4.18-2.3,0-4.17-1.86-4.18-4.16h0"/>
  </g>
</svg>