<?xml version="1.0" encoding="UTF-8"?>
<svg id="_レイヤー_2" data-name="レイヤー_2" xmlns="http://www.w3.org/2000/svg" viewBox="0 0 29.99 32.85">
  <defs>
    <style>
      .cls-1 {
        fill: #fff;
      }
    </style>
  </defs>
  <g id="header">
    <g>
      <path class="cls-1" d="M9.32,21.78L5.49,2.1,0,.78l.19-.78,5.99,1.43,1.24,6.39,22.57.35-1.48,11.37-19.19,2.24ZM7.58,8.63l2.39,12.27,17.82-2.08,1.29-9.85-21.5-.33Z"/>
      <path class="cls-1" d="M28.62,26.4H10.75c-.1,0-2.37-.01-3.47-1.14-.41-.41-.61-.92-.6-1.51.02-1.47,1.58-2.45,4.63-2.92.11-.02.18-.03.21-.04l.1.31.25-.22.07.33c-.07.19-.2.21-.53.26-2.68.41-4.05,1.18-4.07,2.28,0,.41.13.75.41,1.04.91.93,2.99.94,3.01.94h17.88v.66Z"/>
      <path class="cls-1" d="M24.7,32.85c-1.24,0-2.24-1.01-2.24-2.24s1.01-2.24,2.24-2.24,2.24,1.01,2.24,2.24-1.01,2.24-2.24,2.24ZM24.7,29.17c-.79,0-1.44.65-1.44,1.44s.65,1.44,1.44,1.44,1.44-.65,1.44-1.44-.65-1.44-1.44-1.44Z"/>
      <path class="cls-1" d="M11.87,32.85c-1.24,0-2.24-1.01-2.24-2.24s1.01-2.24,2.24-2.24,2.24,1.01,2.24,2.24-1.01,2.24-2.24,2.24ZM11.87,29.17c-.79,0-1.44.65-1.44,1.44s.65,1.44,1.44,1.44,1.44-.65,1.44-1.44-.65-1.44-1.44-1.44Z"/>
    </g>
  </g>
</svg>