<?xml version="1.0" encoding="UTF-8"?>
<svg id="_レイヤー_2" data-name="レイヤー_2" xmlns="http://www.w3.org/2000/svg" viewBox="0 0 60.9 60.9">
  <defs>
    <style>
      .cls-1 {
        font-family: Aboreto-Regular, Aboreto;
        font-size: 3.39px;
      }

      .cls-1, .cls-2, .cls-3, .cls-4 {
        stroke: #09083d;
        stroke-miterlimit: 10;
      }

      .cls-1, .cls-3 {
        stroke-width: .25px;
      }

      .cls-1, .cls-3, .cls-4 {
        fill: #09083d;
      }

      .cls-2 {
        fill: #f2ebd1;
      }

      .cls-2, .cls-4 {
        stroke-width: .5px;
      }

      .cls-5 {
        letter-spacing: .3em;
      }

      .cls-6 {
        letter-spacing: .22em;
      }
    </style>
  </defs>
  <g id="header">
    <g>
      <path class="cls-3" d="M24.77,38.06c-.34-.07-.34-.2-.31-.37.04-.22.09-.51.16-.92.15-.88.39-2.36.49-4.75.06-1.5.03-2.37-.03-3.25,0-.03.02-.05.04-.04.35.15.59.3.9.54.01,0,.02.01.03.02.98-.02,1.47-.03,2.45-.03.02,0,.03-.02.03-.04,0-1,0-1.5-.02-2.49,0-.53-.02-.98-.07-1.51,0-.02.01-.05.03-.04.84.08,1.15.18,1.24.24.02.01.02.04,0,.06-.03.05-.12.14-.37.26-.03.02-.05.02-.08.04,0,1.38,0,2.07,0,3.45,0,.02.01.04.03.04.99,0,1.49,0,2.49.03.01-.02.02-.03.04-.05.34-.46.45-.57.49-.57.06,0,.24.2.52.51.19.21.19.27.19.32,0,.03,0,.09-.28.31-.02.02-.03.03-.06.04,0,.75,0,1.12.02,1.87.08,2.59.27,3.66.36,4.3.04.25.07.43.09.61.07.52-.03.9-.32,1.19-.17.17-1.35-.57-2.09-.78-.04-.01-.03-.08,0-.08.47,0,.8,0,1.16-.05.33-.04.34-.33.32-.54-.08-.84-.11-1.26-.16-2.1,0-.02-.02-.04-.03-.04-2.52.21-3.78.21-6.3-.03,0,.06,0,.09,0,.16-.05.84-.11,1.49-.16,2-.06.63-.11,1.04-.15,1.4-.03.2-.1.41-.62.3ZM25.75,34.07c2.5.23,3.75.23,6.25.03.02,0,.03-.02.03-.04-.05-.91-.07-1.36-.09-2.27,0-.02-.01-.04-.03-.04-2.42.08-3.63.08-6.05-.01-.02,0-.03.02-.03.04-.02.9-.04,1.35-.1,2.25,0,.02.01.04.03.04ZM25.86,31.61c2.42.08,3.63.08,6.04.01.02,0,.03-.02.03-.04-.02-.85-.02-1.28,0-2.13,0-.02-.01-.04-.03-.04-2.41-.04-3.62-.04-6.03,0-.02,0-.03.02-.03.04.01.85,0,1.27,0,2.11,0,.02.01.04.03.04ZM30.17,29.16c.45-.82.82-1.54,1.13-2.27.15-.36.3-.71.42-1.08,0-.02.03-.03.04-.02.38.28,1.03.79,1.02.95,0,.09-.28.07-.37.06-.03,0-.07,0-.11-.01-.02,0-.04,0-.06,0-.02.02-.02.03-.04.05-.68.9-1.16,1.49-1.83,2.14-.08.08-.12.11-.19.19ZM26.66,28.41c-.16,0-.24,0-.38-.66-.13-.62-.31-1.1-.7-1.65-.02-.03,0-.08.03-.06.98.44,1.45,1.03,1.47,1.71,0,.37-.18.66-.42.66ZM23.29,26.75c-.15,0-.29-.13-.29-.31,0-.13.08-.12.22-.39.06-.11.62-1.57.77-1.95.01-.03.05-.03.06,0,.03.11.09.29.11.4.01.06.02.08.03.14,1.7-.32,2.55-.41,4.25-.45.02,0,.03-.02.03-.04,0-.46-.01-.69-.02-1.14,0-.22,0-.45-.05-.92,0-.02.02-.05.04-.04,1.21.13.97.57.97.57,0,0,0-.09,0,0-.03.05-.05.07-.08.12,0,.56,0,.84-.01,1.41,0,.02.01.04.03.04,1.72.02,2.58.1,4.3.4.02-.02.03-.02.05-.04.45-.4.6-.5.65-.48.07.01.2.16.65.83,0,0,0,0,0,0,.29.38.27.47.26.51-.03.15-.26.13-.45.09-.04,0-.08-.02-.11-.03-.27-.05-.38.03-.66.25-.16.13-.34.24-.7.45-.03.02-.05-.02-.04-.05.18-.37.3-.64.51-1.18.03-.07.04-.11.07-.18-3.87-.71-5.81-.71-9.68,0,0,.06.01.09.02.15.15,1.28-.33,1.8-.93,1.83Z"/>
      <text class="cls-1" transform="translate(25.08 43.69)"><tspan class="cls-6" x="0" y="0">y</tspan><tspan class="cls-5" x="2.84" y="0">oi</tspan></text>
      <path class="cls-4" d="M32.06,58.02c-7.43,0-14.46-2.82-19.86-8C.73,39.03.31,20.71,11.26,9.19,18.18,1.93,28.16-1.18,37.98.87l-.07.38C29.31-.13,20.58,2.81,14.58,9.12c-9.88,10.38-9.1,26.11,1.82,36.57,5.41,5.19,12.25,7.96,19.24,7.8,6.47-.15,12.57-2.89,17.17-7.73,4.35-4.58,7.06-10.69,7.44-16.79,0,0,0,0,0-.01h0c0-.07,0-.13.01-.2l.39.02c0,.07,0,.14-.01.22-.32,6.11-2.52,14.6-7.75,20.1-5.31,5.58-12.47,8.75-20.15,8.93-.23,0-.45,0-.68,0ZM31.07.66c-7.32.24-14.31,3.33-19.52,8.81C.74,20.82,1.15,38.89,12.47,49.75c5.48,5.26,12.66,8.05,20.25,7.88,7.58-.17,14.64-3.3,19.88-8.81,3.27-3.44,5.34-8.06,6.49-12.53-1.3,3.59-3.35,6.95-6.01,9.75-4.67,4.91-10.86,7.7-17.44,7.85-7.12.16-14.03-2.65-19.52-7.91-5.24-5.03-8.36-11.55-8.77-18.37-.42-6.95,2.05-13.61,6.94-18.75C18.78,4.14,24.75,1.28,31.07.66Z"/>
      <circle class="cls-4" cx="46.79" cy="8.66" r=".47"/>
      <ellipse class="cls-4" cx="51.54" cy="13.42" rx="1.56" ry="1.56"/>
      <path class="cls-2" d="M26.48,60.65C12.02,60.65.25,48.84.25,34.32S12.02,8,26.48,8c3.69,0,7.27.76,10.62,2.25,9.48,4.22,15.61,13.67,15.61,24.08,0,14.52-11.77,26.33-26.23,26.33ZM26.48,8.39C12.23,8.39.64,20.02.64,34.32s11.59,25.94,25.84,25.94,25.84-11.64,25.84-25.94c0-10.26-6.04-19.57-15.38-23.72-3.3-1.47-6.82-2.21-10.46-2.21Z"/>
    </g>
  </g>
</svg>