<?xml version="1.0" encoding="UTF-8"?>
<svg id="_レイヤー_2" data-name="レイヤー_2" xmlns="http://www.w3.org/2000/svg" viewBox="0 0 60.9 60.9">
  <defs>
    <style>
      .cls-1 {
        stroke-width: .5px;
      }

      .cls-1, .cls-2 {
        fill: #f2ebd1;
      }

      .cls-1, .cls-2, .cls-3 {
        stroke: #f2ebd1;
        stroke-miterlimit: 10;
      }

      .cls-2, .cls-3 {
        stroke-width: .25px;
      }

      .cls-4 {
        letter-spacing: .3em;
      }

      .cls-5 {
        letter-spacing: .22em;
      }

      .cls-3 {
        fill: #fff;
        font-family: Aboreto-Regular, Aboreto;
        font-size: 3.39px;
      }
    </style>
  </defs>
  <g id="header">
    <g>
      <g>
        <path class="cls-2" d="M29.97,29.26s.06,0,.06,0c-.02,0-.03,0-.06,0Z"/>
        <path class="cls-2" d="M30.37,28.97c.67-.65,1.15-1.24,1.83-2.14.02-.02.02-.03.04-.05.02,0,.04,0,.06,0,.04,0,.07,0,.11.01.09,0,.36.03.37-.06.01-.16-.64-.67-1.02-.95-.02-.01-.04,0-.04.02-.12.37-.25.72-.42,1.08-.29.73-.89,1.57-1.33,2.37.02,0,.03,0,.06,0,.14-.12.2-.17.34-.29Z"/>
        <path class="cls-2" d="M32.82,29.17c-.28-.31-.46-.51-.52-.51-.05,0-.16.12-.49.57-.01.02-.02.03-.04.05-.99-.02-1.49-.03-2.49-.03-.02,0-.03-.02-.03-.04,0-1.38,0-2.07,0-3.45.03-.02.05-.02.08-.04.26-.12.34-.21.37-.26.01-.02,0-.05,0-.06-.09-.07-.4-.17-1.24-.24-.02,0-.04.02-.03.04.05.52.06.98.07,1.51,0,1,.01,1.5.02,2.49,0,.02-.01.04-.03.04-.98,0-1.47.01-2.45.03-.01,0-.02-.01-.03-.02-.32-.23-.55-.38-.9-.54-.02,0-.04.01-.04.04.06.87.09,1.75.03,3.25-.09,2.39-.34,3.87-.49,4.75-.07.41-.12.7-.16.92-.03.17-.02.3.31.37.53.1.6-.11.62-.3.05-.35.09-.77.15-1.4.05-.51.11-1.15.16-2,0-.06,0-.09,0-.16,2.52.24,3.78.25,6.3.03.02,0,.03.01.03.04.05.84.09,1.26.16,2.1.02.21,0,.5-.32.54-.36.04-.69.06-1.16.05-.04,0-.05.07,0,.08.74.21,1.92.94,2.09.78.29-.29.39-.67.32-1.19-.02-.17-.05-.35-.09-.61-.09-.64-.29-1.71-.36-4.3-.02-.75-.03-1.12-.02-1.87.02-.02.03-.03.06-.04.28-.22.28-.28.28-.31,0-.05,0-.11-.19-.32ZM32.03,34.06s-.01.04-.03.04c-2.5.21-3.75.2-6.25-.03-.02,0-.03-.02-.03-.04.06-.9.08-1.35.1-2.25,0-.02.01-.04.03-.04,2.42.09,3.63.09,6.05.01.02,0,.03.02.03.04.02.91.04,1.36.09,2.27ZM31.94,31.58s-.01.04-.03.04c-2.42.07-3.63.07-6.04-.01-.02,0-.03-.02-.03-.04.02-.85.02-1.27,0-2.11,0-.02.01-.04.03-.04,2.41-.05,3.62-.05,6.03,0,.02,0,.03.02.03.04-.01.85,0,1.28,0,2.13Z"/>
        <path class="cls-2" d="M35,24.91s0,0,0,0c-.45-.67-.58-.81-.65-.83-.05-.01-.2.08-.65.48-.02.02-.03.02-.05.04-1.72-.3-2.58-.38-4.3-.4-.02,0-.03-.02-.03-.04,0-.56,0-.84.01-1.41.03-.05.05-.07.08-.12,0-.09,0,0,0,0,0,0,.24-.44-.97-.57-.02,0-.04.02-.04.04.04.47.05.7.05.92,0,.46.01.69.02,1.14,0,.02-.01.04-.03.04-1.7.04-2.55.13-4.25.45-.01-.06-.02-.08-.03-.14-.02-.11-.08-.29-.11-.4,0-.03-.05-.03-.06,0-.15.38-.71,1.84-.77,1.95-.14.28-.22.27-.22.39,0,.18.14.32.29.31.6-.03,1.08-.55.93-1.84,0-.06-.01-.09-.02-.15,3.87-.71,5.81-.71,9.68,0-.03.07-.04.11-.07.18-.21.54-.33.8-.51,1.18-.02.03.01.07.04.05.36-.2.53-.32.7-.45.28-.23.39-.3.66-.25.03,0,.07.02.11.03.19.04.42.06.45-.09,0-.04.03-.13-.26-.51Z"/>
        <path class="cls-2" d="M26.66,28.41c.24,0,.43-.3.42-.66-.02-.68-.48-1.27-1.47-1.71-.03-.01-.05.03-.03.06.39.54.58,1.01.7,1.65.15.67.22.67.38.66Z"/>
      </g>
      <text class="cls-3" transform="translate(25.08 43.69)"><tspan class="cls-5" x="0" y="0">y</tspan><tspan class="cls-4" x="2.84" y="0">oi</tspan></text>
      <path class="cls-1" d="M32.06,58.02c-7.43,0-14.46-2.82-19.86-8C.73,39.03.31,20.71,11.26,9.19,18.18,1.93,28.16-1.18,37.98.87l-.07.38C29.31-.13,20.58,2.81,14.58,9.12c-9.88,10.38-9.1,26.11,1.82,36.57,5.41,5.19,12.25,7.96,19.24,7.8,6.47-.15,12.57-2.89,17.17-7.73,4.35-4.58,7.06-10.69,7.44-16.79,0,0,0,0,0-.01h0c0-.07,0-.13.01-.2l.39.02c0,.07,0,.14-.01.22-.32,6.11-2.52,14.6-7.75,20.1-5.31,5.58-12.47,8.75-20.15,8.93-.23,0-.45,0-.68,0ZM31.07.66c-7.32.24-14.31,3.33-19.52,8.81C.74,20.82,1.15,38.89,12.47,49.75c5.48,5.26,12.66,8.05,20.25,7.88,7.58-.17,14.64-3.3,19.88-8.81,3.27-3.44,5.34-8.06,6.49-12.53-1.3,3.59-3.35,6.95-6.01,9.75-4.67,4.91-10.86,7.7-17.44,7.85-7.12.16-14.03-2.65-19.52-7.91-5.24-5.03-8.36-11.55-8.77-18.37-.42-6.95,2.05-13.61,6.94-18.75C18.78,4.14,24.75,1.28,31.07.66Z"/>
      <circle class="cls-1" cx="46.79" cy="8.66" r=".47"/>
      <ellipse class="cls-1" cx="51.54" cy="13.42" rx="1.56" ry="1.56"/>
      <path class="cls-1" d="M26.48,60.65C12.02,60.65.25,48.84.25,34.32S12.02,8,26.48,8c3.69,0,7.27.76,10.62,2.25,9.48,4.22,15.61,13.67,15.61,24.08,0,14.52-11.77,26.33-26.23,26.33ZM26.48,8.39C12.23,8.39.64,20.02.64,34.32s11.59,25.94,25.84,25.94,25.84-11.64,25.84-25.94c0-10.26-6.04-19.57-15.38-23.72-3.3-1.47-6.82-2.21-10.46-2.21Z"/>
    </g>
  </g>
</svg>